<svg id="レイヤー_1" data-name="レイヤー 1" xmlns="http://www.w3.org/2000/svg" xmlns:xlink="http://www.w3.org/1999/xlink" viewBox="0 0 522 522"><defs><style>.cls-1,.cls-2,.cls-3{fill:none;}.cls-2{clip-path:url(#clip-path);clip-rule:evenodd;}.cls-3{clip-path:url(#clip-path-2);}.cls-4{clip-path:url(#clip-path-6);}.cls-5{clip-path:url(#clip-path-7);}.cls-6{fill:#fff;}.cls-7{clip-path:url(#clip-path-8);}.cls-8{clip-path:url(#clip-path-9);}</style><clipPath id="clip-path"><rect class="cls-1" x="41" y="165.89" width="512" height="512"/></clipPath><clipPath id="clip-path-2"><path class="cls-2" d="M297,677.89c141.38,0,256-114.62,256-256s-114.62-256-256-256S41,280.5,41,421.89s114.62,256,256,256Zm0,0"/></clipPath><clipPath id="clip-path-6" transform="translate(-36 -160.89)"><rect class="cls-3" x="41" y="-114.11" width="612" height="792"/></clipPath><clipPath id="clip-path-7" transform="translate(-36 -160.89)"><path class="cls-2" d="M365.86,404.29c-18.35,0-27.73,14.45-27.73,36.2,0,20.57,10.14,36,27.73,36,19.89,0,27.34-18.2,27.34-36,0-18.59-9.38-36.2-27.35-36.2m-48.75-54h21.8v52.21h.38c5.93-9.88,18.36-16,29.45-16C399.89,386.49,415,411,415,440.9c0,27.48-13.38,53.39-42.64,53.39-13.39,0-27.73-3.35-34.23-16.81h-.38v14.06H317.1V350.3h0"/></clipPath><clipPath id="clip-path-8" transform="translate(-36 -160.89)"><path class="cls-2" d="M495.39,423.49c-1.72-12.46-10.52-19.19-22.56-19.19-11.29,0-27.16,6.13-27.16,37.19,0,17,7.27,35,26.2,35,12.62,0,21.41-8.71,23.52-23.35h21.8c-4,26.51-19.89,41.14-45.32,41.14-31,0-48-22.74-48-52.8,0-30.86,16.25-55,48.76-55,22.94,0,42.45,11.87,44.55,37h-21.8"/></clipPath><clipPath id="clip-path-9" transform="translate(-36 -160.89)"><polyline class="cls-2" points="240.9 491.23 77.41 491.23 153.75 350.3 317.24 350.3 240.9 491.23"/></clipPath></defs><title>bandcamp-button-bc-circle-black</title><g class="cls-4"><rect width="522" height="522"/></g><g class="cls-5"><rect class="cls-6" x="276.1" y="184.41" width="107.9" height="154"/></g><g class="cls-7"><rect class="cls-6" x="382.88" y="220.61" width="103.31" height="117.8"/></g><g class="cls-8"><rect class="cls-6" x="36.41" y="184.41" width="249.83" height="150.93"/></g></svg>